<?xml version="1.0" standalone="no"?>
<!DOCTYPE svg PUBLIC "-//W3C//DTD SVG 20010904//EN"
 "http://www.w3.org/TR/2001/REC-SVG-20010904/DTD/svg10.dtd">
<svg version="1.0" xmlns="http://www.w3.org/2000/svg"
 width="1424.000000pt" height="1424.000000pt" viewBox="0 0 1424.000000 1424.000000"
 preserveAspectRatio="xMidYMid meet">
<metadata>
Created by potrace 1.14, written by Peter Selinger 2001-2017
</metadata>
<g transform="translate(0.000000,1424.000000) scale(0.100000,-0.100000)"
fill="#000000" stroke="none">
<path d="M11730 11837 c-3 -3 -28 -7 -57 -10 -51 -5 -153 -45 -153 -59 0 -5
-6 -8 -14 -8 -8 0 -18 -9 -21 -20 -3 -11 -10 -20 -14 -20 -4 0 -18 -19 -31
-41 -22 -41 -36 -132 -22 -154 4 -5 7 -15 8 -21 3 -19 85 -144 95 -144 5 0 9
-5 9 -12 0 -6 33 -48 73 -92 83 -93 76 -86 310 -324 97 -100 177 -186 177
-192 0 -6 5 -8 10 -5 6 3 10 2 10 -4 0 -5 20 -31 44 -58 24 -26 85 -100 136
-163 50 -63 98 -123 106 -133 8 -9 14 -22 14 -27 0 -6 4 -10 8 -10 5 0 20 -17
33 -37 14 -21 63 -95 110 -164 112 -167 107 -160 121 -189 7 -14 15 -27 18
-30 3 -3 11 -15 18 -27 6 -13 18 -33 25 -45 6 -13 15 -25 18 -28 3 -3 40 -75
83 -160 43 -85 82 -160 88 -167 5 -7 7 -16 4 -22 -3 -5 -2 -11 2 -13 14 -5
166 -378 155 -378 -3 0 -1 -6 5 -13 6 -7 13 -25 16 -40 2 -15 8 -32 12 -38 6
-10 56 -168 69 -219 19 -71 47 -178 50 -190 2 -8 8 -35 15 -60 6 -25 13 -58
14 -75 2 -16 5 -30 6 -30 1 0 3 -7 5 -15 8 -41 28 -148 31 -170 1 -14 7 -52
13 -85 6 -33 13 -82 15 -110 3 -27 8 -66 10 -85 9 -61 15 -123 21 -200 3 -41
8 -106 10 -145 7 -91 8 -555 1 -670 -10 -168 -17 -250 -27 -350 -6 -55 -12
-111 -14 -125 -1 -14 -6 -50 -10 -80 -4 -30 -9 -62 -10 -70 -15 -109 -21 -148
-24 -152 -2 -2 -4 -14 -6 -28 -4 -29 -15 -96 -20 -125 -2 -11 -4 -20 -5 -20
-1 0 -4 -11 -6 -25 -10 -52 -13 -65 -14 -65 -1 0 -4 -13 -6 -28 -7 -42 -61
-250 -91 -347 -14 -47 -27 -92 -28 -100 -2 -8 -4 -16 -5 -17 -2 -2 -4 -7 -5
-13 -1 -5 -4 -12 -5 -15 -1 -3 -3 -8 -5 -12 -1 -5 -4 -15 -8 -23 -3 -8 -11
-33 -18 -55 -6 -22 -34 -98 -62 -170 -28 -71 -52 -132 -52 -135 -7 -27 -99
-220 -208 -438 -39 -76 -193 -331 -261 -431 -39 -57 -78 -114 -86 -126 -22
-32 -53 -74 -71 -96 -9 -11 -27 -35 -40 -54 -13 -19 -27 -35 -31 -35 -5 0 -8
-4 -8 -9 0 -9 -35 -53 -77 -97 -12 -13 -28 -33 -36 -44 -37 -53 -259 -291
-371 -399 -249 -238 -327 -344 -356 -482 -13 -65 -8 -92 28 -169 36 -76 86
-128 157 -162 83 -40 155 -37 273 10 47 19 91 40 98 46 6 6 31 23 55 38 65 40
80 51 99 68 49 44 80 70 80 65 0 -18 322 321 426 449 27 33 64 76 81 95 18 20
33 39 33 42 0 3 10 17 23 31 12 14 34 40 49 59 15 19 34 43 43 54 9 11 54 72
101 135 46 63 88 120 92 125 4 6 17 25 27 43 11 17 23 32 27 32 4 0 8 4 8 9 0
5 32 57 70 115 39 58 70 110 70 115 0 5 7 14 15 21 8 7 12 16 9 21 -3 5 -1 9
5 9 5 0 20 21 32 47 13 27 29 54 36 61 7 7 13 19 13 25 0 7 9 23 20 37 11 14
20 33 20 43 0 9 4 17 8 17 5 0 17 20 28 45 10 25 22 45 26 45 4 0 7 3 6 8 -1
4 14 41 34 82 53 111 100 214 102 225 1 6 6 17 11 25 5 8 10 17 10 20 1 9 39
105 52 129 23 46 188 567 199 630 3 14 11 49 19 76 8 28 16 64 19 80 2 17 5
31 6 33 3 3 3 4 20 77 7 33 14 74 16 90 2 17 7 48 13 70 5 22 13 63 16 90 12
84 13 90 15 90 2 0 7 37 25 175 3 25 7 61 9 80 3 19 8 60 11 90 3 30 8 71 10
90 42 367 51 1042 20 1410 -2 25 -4 45 -5 45 0 0 -3 27 -5 60 -2 33 -7 76 -10
95 -2 19 -7 58 -11 85 -6 53 -11 84 -19 125 -2 13 -7 42 -10 65 -8 51 -13 83
-20 115 -3 14 -8 41 -11 60 -3 19 -8 42 -11 50 -3 8 -8 31 -10 50 -2 19 -9 40
-15 47 -6 8 -8 16 -5 19 3 3 -1 29 -9 57 -8 29 -19 68 -24 87 -81 297 -190
588 -323 860 -34 69 -62 127 -62 130 -1 3 -11 21 -23 40 -12 19 -22 41 -22 48
0 6 -5 12 -11 12 -5 0 -7 5 -4 10 3 6 2 10 -3 10 -5 0 -12 8 -15 18 -8 22 -53
102 -127 219 -33 52 -60 99 -60 104 0 5 -4 9 -8 9 -5 0 -15 12 -23 28 -8 15
-16 29 -19 32 -3 3 -25 34 -50 70 -57 85 -77 114 -123 175 -20 27 -41 55 -45
60 -35 48 -100 133 -114 150 -37 44 -54 65 -75 92 -12 15 -30 38 -41 51 -11
13 -35 41 -52 62 -17 21 -41 49 -52 62 -11 13 -39 45 -62 72 -61 73 -322 334
-391 392 -33 28 -89 71 -125 95 -36 24 -67 46 -70 49 -12 14 -150 80 -150 73
0 -4 -4 -3 -8 3 -8 13 -99 37 -112 29 -4 -3 -10 0 -12 6 -2 5 -6 8 -8 6z"/>
<path d="M2418 11811 c-31 -10 -60 -16 -63 -13 -3 3 -5 0 -5 -6 0 -6 -10 -14
-22 -17 -24 -8 -139 -74 -148 -85 -3 -4 -14 -12 -26 -18 -12 -6 -39 -26 -61
-44 -22 -18 -60 -49 -83 -68 -82 -66 -281 -271 -420 -432 -14 -16 -38 -44 -55
-62 -16 -19 -40 -47 -52 -63 -12 -16 -34 -42 -48 -57 -14 -15 -25 -31 -25 -36
0 -4 -3 -10 -7 -12 -5 -1 -26 -25 -48 -53 -21 -27 -42 -52 -45 -55 -3 -3 -9
-12 -15 -21 -5 -9 -37 -52 -70 -95 -32 -44 -96 -133 -142 -199 -45 -66 -87
-125 -93 -132 -5 -7 -10 -17 -10 -23 0 -5 -4 -10 -10 -10 -5 0 -10 -4 -10 -9
0 -6 -26 -52 -58 -103 -32 -51 -62 -100 -65 -108 -4 -8 -15 -28 -25 -45 -31
-51 -137 -247 -161 -300 -13 -27 -40 -84 -59 -125 -20 -41 -37 -79 -38 -85 -2
-5 -23 -59 -48 -120 -55 -137 -90 -226 -93 -242 -6 -28 -10 -40 -22 -78 -8
-22 -18 -46 -24 -52 -5 -7 -7 -13 -4 -13 3 0 1 -15 -4 -32 -25 -79 -40 -135
-46 -163 -3 -16 -9 -38 -14 -47 -5 -10 -8 -18 -5 -18 3 0 0 -15 -5 -32 -10
-35 -47 -206 -54 -248 -2 -14 -7 -36 -10 -50 -3 -14 -8 -45 -11 -70 -3 -25 -8
-54 -11 -65 -2 -11 -6 -38 -8 -60 -3 -22 -7 -58 -11 -80 -4 -22 -8 -56 -9 -75
-2 -19 -6 -64 -10 -100 -4 -36 -8 -83 -10 -105 -24 -262 -23 -803 0 -1120 3
-33 7 -96 10 -140 3 -44 7 -93 10 -110 10 -78 19 -184 20 -222 0 -22 3 -39 7
-36 5 2 8 -11 8 -30 0 -18 4 -58 9 -88 6 -30 12 -72 15 -94 3 -22 8 -51 11
-65 3 -14 7 -38 9 -55 3 -16 10 -55 16 -85 7 -30 13 -64 15 -75 1 -11 4 -21 5
-22 1 -2 3 -11 4 -20 1 -10 5 -31 9 -48 4 -16 9 -40 12 -53 7 -38 65 -266 72
-282 3 -8 5 -20 4 -27 -1 -6 3 -14 9 -18 5 -3 10 -14 10 -24 0 -29 114 -370
155 -466 8 -16 14 -33 14 -38 0 -4 8 -21 16 -37 8 -16 15 -32 15 -35 0 -3 13
-35 30 -71 16 -37 30 -69 30 -71 0 -9 178 -361 208 -411 18 -29 32 -55 32 -57
0 -5 128 -214 151 -247 11 -14 19 -29 19 -33 0 -3 6 -13 12 -20 27 -30 38 -44
38 -50 0 -14 270 -376 302 -406 10 -9 18 -19 18 -23 0 -4 54 -71 119 -149 166
-198 163 -194 291 -325 230 -236 427 -375 581 -412 129 -31 251 19 325 132 75
114 80 192 20 318 -38 79 -53 101 -121 179 -61 70 -217 221 -228 221 -6 0 -8
2 -6 5 3 2 -45 56 -105 118 -61 63 -136 142 -166 177 -47 54 -241 295 -285
355 -8 11 -23 31 -33 45 -51 68 -172 252 -172 260 0 6 -4 10 -10 10 -5 0 -10
4 -10 10 0 5 -17 36 -37 67 -20 32 -36 60 -36 63 1 3 -3 11 -9 18 -15 18 -48
74 -54 95 -4 9 -11 17 -17 17 -6 0 -7 3 -4 7 4 3 3 11 -2 17 -9 11 -117 226
-148 296 -9 19 -22 47 -30 62 -8 16 -11 28 -6 28 4 0 2 4 -5 9 -7 4 -15 14
-16 22 -2 8 -8 28 -15 44 -11 27 -87 228 -107 280 -4 11 -8 27 -10 36 -2 9 -9
29 -15 45 -7 16 -11 33 -10 38 1 4 -2 13 -7 20 -6 6 -13 27 -17 46 -4 19 -10
40 -13 45 -4 6 -7 15 -8 20 -1 6 -11 45 -23 88 -13 43 -24 86 -26 95 -2 9 -13
55 -25 102 -12 47 -23 94 -25 105 -3 23 -15 90 -22 120 -15 64 -37 201 -48
295 -4 30 -9 59 -12 63 -2 4 -6 36 -9 70 -2 34 -6 81 -9 105 -3 23 -7 59 -9
80 -5 46 -17 213 -21 307 -4 94 -5 525 0 600 5 92 15 246 20 285 14 141 24
222 32 265 3 17 7 46 9 65 1 19 3 35 4 35 1 0 6 28 13 75 2 8 6 20 9 26 4 5 5
19 4 30 -2 10 -1 24 3 29 3 6 6 12 6 15 1 3 4 26 9 52 4 26 7 49 6 50 -1 2 3
16 9 31 6 15 13 42 16 60 3 18 24 95 46 172 23 77 42 145 43 150 2 6 6 17 9
25 3 8 19 56 35 105 31 93 90 249 122 320 10 22 28 65 41 95 12 30 29 63 37
73 8 9 12 17 9 17 -4 0 23 57 60 128 36 70 73 141 81 157 9 17 18 32 22 35 4
3 20 30 37 60 41 76 104 173 117 182 6 4 8 8 4 8 -8 0 90 145 116 171 9 9 16
19 16 23 0 6 77 113 90 126 3 3 21 25 40 50 56 72 73 92 109 130 19 19 34 37
33 40 -1 8 130 149 314 339 95 97 188 193 209 214 29 31 107 125 183 222 24
30 59 126 61 163 2 81 -63 172 -156 217 -75 37 -174 43 -255 16z"/>
<path d="M6646 11282 c2 -15 7 -49 11 -77 17 -120 5 -458 -20 -580 -3 -11 -8
-42 -11 -68 -11 -74 -54 -270 -82 -367 -8 -30 -17 -62 -19 -70 -2 -8 -13 -44
-25 -80 -12 -36 -24 -76 -26 -89 -3 -14 -8 -29 -12 -35 -3 -6 -7 -16 -8 -23
-5 -31 -120 -333 -166 -433 -11 -25 -24 -54 -28 -65 -37 -89 -66 -151 -75
-157 -5 -4 -7 -8 -3 -8 4 0 -8 -30 -26 -67 -19 -38 -37 -78 -40 -90 -4 -13
-12 -23 -17 -23 -5 0 -9 -6 -9 -12 0 -12 -20 -55 -65 -138 -11 -19 -20 -37
-20 -40 -1 -6 -29 -60 -68 -130 -31 -54 -60 -107 -106 -192 -13 -23 -26 -45
-30 -48 -3 -3 -19 -31 -36 -62 -16 -32 -33 -58 -37 -58 -4 0 -8 -7 -8 -16 0
-8 -12 -31 -26 -50 -15 -19 -22 -34 -18 -34 5 0 4 -4 -1 -8 -15 -10 -85 -120
-85 -132 0 -5 -4 -10 -10 -10 -5 0 -10 -6 -10 -14 0 -8 -6 -21 -14 -28 -7 -8
-21 -29 -31 -48 -9 -18 -21 -38 -27 -44 -5 -6 -41 -60 -80 -121 -39 -60 -76
-113 -82 -117 -6 -4 -7 -8 -3 -8 4 0 3 -6 -3 -12 -8 -10 -95 -134 -160 -228
-5 -8 -48 -70 -95 -137 -47 -66 -85 -126 -85 -132 0 -6 -3 -11 -7 -11 -5 0
-21 -23 -38 -51 -16 -28 -38 -63 -47 -78 -62 -96 -269 -503 -267 -524 0 -1 -5
-15 -11 -32 -34 -88 -61 -162 -64 -175 -2 -9 -16 -55 -31 -103 -14 -48 -29
-100 -31 -115 -3 -15 -9 -40 -14 -57 -8 -26 -15 -65 -26 -140 -1 -11 -3 -20
-4 -20 -2 0 -4 -16 -6 -35 -1 -19 -6 -54 -9 -77 -27 -194 -17 -536 21 -703 3
-14 8 -36 10 -50 14 -83 75 -287 127 -420 41 -104 142 -310 178 -362 11 -14
19 -29 19 -33 0 -19 224 -333 287 -401 15 -17 49 -55 74 -85 85 -99 258 -267
379 -369 36 -30 73 -62 82 -71 10 -10 27 -20 38 -24 11 -4 18 -11 15 -16 -4
-5 -1 -9 5 -9 9 0 79 -49 100 -70 3 -3 12 -9 21 -15 10 -5 32 -21 50 -34 19
-13 7 2 -25 33 -69 67 -166 186 -166 204 0 6 -3 12 -8 12 -20 0 -142 272 -156
351 -3 13 -5 24 -6 24 -2 0 -5 16 -14 60 -3 17 -8 41 -11 55 -14 67 -18 129
-18 295 -1 99 2 203 6 230 3 28 9 73 12 100 3 28 8 57 10 65 2 8 7 31 10 50 3
19 8 42 10 50 2 8 7 31 10 50 3 19 10 49 15 65 5 17 28 93 51 170 23 77 51
165 62 195 12 30 22 57 22 60 1 3 8 19 15 35 7 17 14 35 15 41 2 9 32 78 87
204 67 151 246 493 333 635 14 22 34 56 45 75 30 52 42 71 68 108 13 17 19 32
15 32 -4 0 -3 4 3 8 15 10 94 129 94 141 0 5 3 11 8 13 4 2 59 80 121 173 63
94 118 173 124 176 5 3 7 9 5 12 -1 3 8 20 22 39 14 18 57 85 97 148 40 63 77
120 83 127 5 7 10 15 10 18 0 3 12 24 27 48 15 23 33 51 39 62 22 41 57 101
75 130 10 17 25 44 33 61 8 17 19 35 25 38 6 4 11 16 11 27 0 10 4 19 8 19 4
0 15 15 23 33 49 103 154 303 161 305 4 2 6 7 4 11 -3 4 5 24 18 45 l22 37 36
-73 c31 -61 55 -115 63 -138 1 -3 5 -13 9 -22 4 -9 8 -22 10 -30 1 -7 4 -17 8
-23 7 -12 65 -247 72 -295 3 -19 8 -46 10 -60 36 -191 40 -568 11 -845 -7 -70
-16 -130 -20 -145 -2 -8 -7 -35 -10 -60 -2 -25 -7 -56 -10 -70 -3 -14 -7 -43
-10 -65 -2 -22 -7 -67 -11 -100 -4 -33 -8 -95 -8 -137 -1 -43 -5 -78 -9 -78
-5 0 -6 -4 -2 -10 3 -5 8 -53 10 -107 3 -54 7 -109 9 -123 38 -226 104 -367
231 -495 65 -65 98 -89 176 -128 52 -26 102 -47 110 -47 9 0 19 -3 23 -7 8 -8
34 -14 59 -14 9 0 17 -3 17 -7 0 -4 19 -8 43 -10 51 -3 69 -6 82 -13 12 -7
306 -3 360 5 22 3 58 8 80 10 82 11 121 17 147 26 23 7 32 4 55 -18 66 -65
129 -208 149 -342 13 -92 6 -267 -15 -337 -5 -18 -8 -33 -6 -33 2 0 -2 -19
-11 -41 -8 -23 -16 -52 -18 -64 -2 -12 -23 -71 -47 -131 -24 -60 -42 -112 -41
-116 1 -5 -2 -8 -7 -8 -5 0 -16 -19 -26 -42 -20 -51 -134 -250 -147 -259 -5
-3 -10 -10 -10 -15 -1 -9 -44 -78 -63 -101 -5 -7 -26 -35 -45 -64 -19 -28 -48
-68 -65 -88 -80 -100 -100 -123 -131 -157 -36 -38 -45 -55 -17 -33 10 8 22 17
28 21 20 15 190 142 200 150 6 5 22 18 36 31 14 12 52 45 85 72 59 50 341 330
402 399 17 20 32 41 32 46 0 4 4 10 9 12 27 9 293 373 347 473 23 44 40 71 53
88 8 9 11 17 7 17 -4 0 1 12 11 28 45 65 152 308 192 437 13 39 25 77 28 85
15 38 59 214 68 270 4 25 9 54 11 65 13 63 26 206 28 302 0 40 5 73 9 73 5 0
6 4 2 9 -3 6 -8 61 -10 123 -3 62 -7 129 -9 148 -3 19 -8 65 -12 103 -4 37
-10 67 -13 67 -3 0 -6 12 -7 28 -1 44 -23 143 -67 297 -2 6 -7 26 -11 45 -5
19 -11 40 -14 45 -9 15 -53 138 -54 153 -1 6 -5 12 -10 12 -4 0 -7 3 -6 8 8
23 -147 343 -245 507 -74 124 -217 339 -228 343 -5 2 -9 8 -9 14 0 5 -20 34
-45 64 l-45 55 -39 -61 c-22 -34 -46 -75 -53 -91 -7 -16 -16 -29 -20 -29 -5 0
-8 -9 -8 -20 0 -11 -3 -20 -7 -20 -5 0 -19 -25 -33 -55 -14 -30 -28 -55 -32
-55 -3 0 -11 -12 -17 -27 -11 -31 -40 -81 -57 -99 -6 -7 -25 -35 -43 -63 -18
-28 -37 -51 -42 -51 -5 0 -9 -5 -9 -10 0 -13 -65 -75 -111 -106 -114 -77 -278
-80 -315 -5 -18 35 -2 232 23 301 3 8 7 24 9 35 1 11 8 43 14 70 15 65 14 59
44 210 27 140 35 184 42 255 3 25 7 61 9 80 13 97 17 200 16 340 0 141 -6 275
-11 275 -1 0 -3 14 -4 30 -6 56 -16 140 -21 165 -8 39 -14 72 -20 105 -13 70
-82 317 -102 365 -3 8 -7 17 -8 20 -5 23 -31 92 -45 125 -10 22 -32 74 -50
115 -46 106 -140 284 -205 389 -30 49 -55 94 -55 101 0 6 -4 8 -10 5 -5 -3
-10 -1 -10 5 0 16 -95 155 -150 220 -16 19 -30 39 -30 43 0 4 -10 19 -22 32
-13 13 -32 36 -43 50 -20 26 -29 36 -86 105 -152 181 -483 513 -655 655 -26
22 -68 59 -93 82 -25 23 -52 43 -58 43 -7 0 -13 3 -13 8 0 4 -18 21 -39 39
l-38 32 3 -27z"/>
</g>
</svg>
